<?xml version="1.0" encoding="utf-8"?>
<!-- Generator: Adobe Illustrator 21.1.0, SVG Export Plug-In . SVG Version: 6.00 Build 0)  -->
<svg version="1.1" id="Capa_1" xmlns="http://www.w3.org/2000/svg" xmlns:xlink="http://www.w3.org/1999/xlink" x="0px" y="0px"
	 viewBox="0 0 50 50" style="enable-background:new 0 0 50 50;" xml:space="preserve">
<style type="text/css">
	.st0{fill:#D57D2F;}
	.st1{fill:#FFFFFF;}
</style>
<g>
	<g>
		<g>
			<g>
				<circle class="st0" cx="24.5" cy="24.9" r="24.1"/>
			</g>
		</g>
	</g>
	<g>
		<path class="st1" d="M31.3,28.4c0,1.4-0.5,2.6-1.5,3.4c-1,0.9-2.5,1.4-4.3,1.6v2.8h-1.8v-2.7c-2.2,0-4.1-0.4-5.8-1.2v-3.6
			c0.8,0.4,1.7,0.7,2.8,1c1.1,0.3,2.1,0.5,2.9,0.5v-4.2l-0.9-0.4c-1.8-0.7-3-1.5-3.8-2.3c-0.7-0.8-1.1-1.8-1.1-3
			c0-1.3,0.5-2.4,1.5-3.2c1-0.8,2.4-1.3,4.3-1.5v-2.1h1.8v2c2.1,0.1,3.9,0.5,5.6,1.2L29.7,20c-1.4-0.6-2.8-0.9-4.3-1v4
			c1.7,0.7,3,1.3,3.7,1.7c0.7,0.5,1.3,1,1.6,1.6C31.1,26.9,31.3,27.6,31.3,28.4z M21.8,20.4c0,0.4,0.1,0.7,0.4,1
			c0.3,0.3,0.7,0.5,1.3,0.8v-3.2C22.4,19.2,21.8,19.7,21.8,20.4z M27.2,28.6c0-0.4-0.2-0.7-0.5-1c-0.3-0.3-0.8-0.5-1.4-0.8v3.3
			C26.6,30,27.2,29.5,27.2,28.6z"/>
	</g>
</g>
</svg>
