<?xml version="1.0" encoding="utf-8"?>
<!-- Generator: Adobe Illustrator 21.1.0, SVG Export Plug-In . SVG Version: 6.00 Build 0)  -->
<svg version="1.1" id="Capa_1" xmlns="http://www.w3.org/2000/svg" xmlns:xlink="http://www.w3.org/1999/xlink" x="0px" y="0px"
	 viewBox="0 0 50 50" style="enable-background:new 0 0 50 50;" xml:space="preserve">
<style type="text/css">
	.st0{fill:#D57D2F;}
	.st1{fill:#FFFFFF;}
</style>
<g>
	<g>
		<circle class="st0" cx="24.7" cy="24.9" r="24.1"/>
	</g>
	<path class="st1" d="M25.2,30.8h2.2v-2.2h-2.2V30.8L25.2,30.8z M22,30.8h2.2v-2.2H22V30.8L22,30.8z M18.9,30.8h2.2v-2.2h-2.2V30.8
		L18.9,30.8z M28.3,27.8h2.2v-2.2h-2.2V27.8L28.3,27.8z M25.2,27.8h2.2v-2.2h-2.2V27.8L25.2,27.8z M22,27.8h2.2v-2.2H22V27.8
		L22,27.8z M18.9,27.8h2.2v-2.2h-2.2V27.8L18.9,27.8z M28.3,24.8h2.2v-2.2h-2.2V24.8L28.3,24.8z M25.2,24.8h2.2v-2.2h-2.2V24.8
		L25.2,24.8z M22,24.8h2.2v-2.2H22V24.8L22,24.8z M18.9,24.8h2.2v-2.2h-2.2V24.8L18.9,24.8z M17.9,15.5h0.9v1.3
		c-0.4,0.2-0.7,0.4-0.7,0.9c0,0.5,0.5,1.1,1.1,1.1s1.2-0.6,1.2-1.1c0-0.5-0.3-0.8-0.7-0.9v-1.2h2.5v1.2c-0.4,0.2-0.7,0.5-0.7,1
		c0,0.5,0.5,1,1.2,1c0.6,0,1.1-0.5,1.1-1c0-0.5-0.3-0.8-0.6-1v-1.2h2.4v1.3c-0.3,0.2-0.6,0.4-0.6,0.9s0.4,1.1,1.2,1
		c0.7,0,1.1-0.4,1.2-0.9c0-0.6-0.3-0.9-0.7-1v-1.3h2.9v1.2c-0.4,0.1-0.6,0.5-0.6,1c0,0.5,0.5,1,1.2,1s1.1-0.5,1.1-1
		c0-0.5-0.2-0.9-0.6-1v-1.2h0.9c1.2,0,2.1,1,2.1,2.1v10.6H32V21H17.5v11.4h11.2l0-3.4l5,0c-0.5,2.8-1.7,4.4-4.8,5.4h-11
		c-1.2,0-2.1-1-2.1-2.1V17.6C15.8,16.4,16.7,15.5,17.9,15.5z"/>
</g>
</svg>
