<?xml version="1.0" encoding="utf-8"?>
<!-- Generator: Adobe Illustrator 21.1.0, SVG Export Plug-In . SVG Version: 6.00 Build 0)  -->
<svg version="1.1" id="Capa_1" xmlns="http://www.w3.org/2000/svg" xmlns:xlink="http://www.w3.org/1999/xlink" x="0px" y="0px"
	 viewBox="0 0 50 50" style="enable-background:new 0 0 50 50;" xml:space="preserve">
<style type="text/css">
	.st0{fill:#D57D2F;}
	.st1{fill:#FFFFFF;}
</style>
<g>
	<g>
		<g>
			<circle class="st0" cx="24.8" cy="25" r="24.2"/>
		</g>
	</g>
	<g transform="translate(0,-270.542)">
		<g>
			<path class="st1" d="M24.8,308.7L24.8,308.7c-0.2,0-0.5-0.1-0.6-0.3c0,0-2.4-2.7-4.7-6c-3.2-4.6-4.8-8.2-4.8-10.9
				c0-2.4,1.1-4.6,3-6.3c1.9-1.7,4.5-2.6,7.2-2.6c2.7,0,5.3,0.9,7.2,2.6c1.9,1.7,3,3.9,3,6.3c0,2.7-1.6,6.4-4.8,10.9
				c-2.3,3.4-4.7,6-4.7,6C25.3,308.6,25,308.7,24.8,308.7z M24.8,283.9c-2.3,0-4.5,0.8-6.1,2.2c-1.6,1.4-2.5,3.3-2.5,5.4
				c0,5,6.5,13,8.6,15.4c2.1-2.4,8.6-10.4,8.6-15.4c0-2-0.9-3.9-2.5-5.4C29.3,284.7,27.1,283.9,24.8,283.9z"/>
		</g>
		<g>
			<ellipse class="st1" cx="24.8" cy="291.5" rx="2.3" ry="2.1"/>
		</g>
	</g>
</g>
</svg>
