<?xml version="1.0" encoding="utf-8"?>
<!-- Generator: Adobe Illustrator 21.1.0, SVG Export Plug-In . SVG Version: 6.00 Build 0)  -->
<svg version="1.1" id="Capa_1" xmlns="http://www.w3.org/2000/svg" xmlns:xlink="http://www.w3.org/1999/xlink" x="0px" y="0px"
	 viewBox="0 0 50 50" style="enable-background:new 0 0 50 50;" xml:space="preserve">
<style type="text/css">
	.st0{fill:#BE6423;}
	.st1{fill:#FFFFFF;}
</style>
<g>
	<g>
		<circle class="st0" cx="25" cy="24.9" r="24"/>
	</g>
	<g>
		<path class="st1" d="M31.7,18.5H18.3c-1.1,0-2,0.9-2,2v8.8c0,1.1,0.9,2,2,2h13.4c1.1,0,2-0.9,2-2v-8.8
			C33.7,19.4,32.8,18.5,31.7,18.5z M18.3,19.6h13.4c0.1,0,0.2,0,0.3,0L25,25L18,19.7C18.1,19.6,18.2,19.6,18.3,19.6z M32.5,29.2
			c0,0.5-0.4,0.9-0.9,0.9H18.3c-0.5,0-0.9-0.4-0.9-0.9v-8.6l7.6,5.8l7.6-5.8V29.2z"/>
	</g>
</g>
</svg>
