<?xml version="1.0" encoding="utf-8"?>
<!-- Generator: Adobe Illustrator 21.1.0, SVG Export Plug-In . SVG Version: 6.00 Build 0)  -->
<svg version="1.1" id="Capa_1" xmlns="http://www.w3.org/2000/svg" xmlns:xlink="http://www.w3.org/1999/xlink" x="0px" y="0px"
	 viewBox="0 0 20 20" style="enable-background:new 0 0 20 20;" xml:space="preserve">
<style type="text/css">
	.st0{fill:#FFFFFF;stroke:#FFFFFF;stroke-miterlimit:10;}
</style>
<g transform="translate(0,-270.542)">
	<g>
		<g>
			<path class="st0" d="M10.2,288L10.2,288c-0.1,0-0.2-0.1-0.3-0.1c0,0-1.3-1.4-2.5-3.2c-1.7-2.4-2.5-4.4-2.5-5.8
				c0-1.3,0.6-2.5,1.6-3.4c1-0.9,2.4-1.4,3.8-1.4c1.4,0,2.8,0.5,3.8,1.4c1,0.9,1.6,2.1,1.6,3.4c0,1.4-0.9,3.4-2.5,5.8
				c-1.2,1.8-2.5,3.2-2.5,3.2C10.5,288,10.4,288,10.2,288z M10.2,274.9c-1.2,0-2.4,0.4-3.2,1.2c-0.9,0.8-1.3,1.8-1.3,2.8
				c0,2.6,3.5,6.9,4.6,8.2c1.1-1.3,4.6-5.5,4.6-8.2c0-1.1-0.5-2.1-1.3-2.8C12.6,275.3,11.4,274.9,10.2,274.9z"/>
		</g>
		<g>
			<ellipse class="st0" cx="10.2" cy="278.9" rx="1.2" ry="1.1"/>
		</g>
	</g>
</g>
</svg>
