<?xml version="1.0" encoding="utf-8"?>
<!-- Generator: Adobe Illustrator 21.1.0, SVG Export Plug-In . SVG Version: 6.00 Build 0)  -->
<svg version="1.1" id="Capa_1" xmlns="http://www.w3.org/2000/svg" xmlns:xlink="http://www.w3.org/1999/xlink" x="0px" y="0px"
	 viewBox="0 0 20 20" style="enable-background:new 0 0 20 20;" xml:space="preserve">
<style type="text/css">
	.st0{fill:#FFFFFF;}
</style>
<g>
	<g>
		<path class="st0" d="M9.7,7.4L9.7,7.4c0,0.2,0,0.4,0.1,0.7h0c-0.2,0-0.6,0-1.3-0.1C8,7.8,7.5,7.7,7.1,7.5C6.7,7.3,6.2,7.1,5.7,6.8
			c-0.4-0.2-0.8-0.6-1.3-1C4.2,5.5,3.9,5.3,3.7,5C3.5,5.5,3.4,6,3.4,6.4v0.1c0,0.6,0.2,1.2,0.7,1.8c0.2,0.3,0.4,0.4,0.6,0.5v0
			c-0.4,0-0.8-0.1-1.3-0.4v0.1c0,0.8,0.3,1.4,0.9,2c0.4,0.3,0.7,0.6,1,0.7c0.2,0.1,0.3,0.1,0.4,0.1c0,0-0.1,0-0.3,0.1
			c-0.1,0-0.2,0-0.3,0H4.9c0,0,0,0,0,0h0h0c-0.1,0-0.3,0-0.5,0c0.2,0.7,0.6,1.2,1.2,1.5c0.5,0.3,1,0.5,1.5,0.5
			c-0.3,0.2-0.6,0.4-0.8,0.6c-0.9,0.5-1.8,0.7-2.7,0.7H3.4c-0.2,0-0.4,0-0.6,0c0.5,0.4,1.1,0.6,1.8,0.9c0.9,0.3,1.8,0.5,2.7,0.5
			c1.5,0,2.9-0.3,4.1-1c0.4-0.2,0.8-0.5,1.3-0.9c0.4-0.4,0.8-0.7,0.9-0.9c0.4-0.5,0.7-1,1-1.5c0.2-0.3,0.4-0.7,0.5-1.2
			c0.3-0.9,0.5-1.8,0.5-2.6V7.4V7.4C15.7,7.3,16,7,16.4,6.7c0.3-0.3,0.5-0.6,0.6-0.8h0c-0.4,0.2-0.8,0.3-1.1,0.4
			c-0.3,0-0.5,0.1-0.5,0.1v0c0.1,0,0.3-0.2,0.6-0.5c0.3-0.4,0.5-0.8,0.7-1.1c-0.4,0.2-0.8,0.4-1.2,0.5c-0.4,0.1-0.6,0.2-0.7,0.2
			c-0.3-0.3-0.5-0.4-0.6-0.5c-0.5-0.3-1-0.4-1.5-0.4h0c-0.8,0-1.5,0.3-2,0.8C10,5.9,9.7,6.6,9.7,7.4z"/>
	</g>
</g>
</svg>
