<?xml version="1.0" encoding="utf-8"?>
<!-- Generator: Adobe Illustrator 21.1.0, SVG Export Plug-In . SVG Version: 6.00 Build 0)  -->
<svg version="1.1" id="Capa_1" xmlns="http://www.w3.org/2000/svg" xmlns:xlink="http://www.w3.org/1999/xlink" x="0px" y="0px"
	 viewBox="0 0 20 20" style="enable-background:new 0 0 20 20;" xml:space="preserve">
<style type="text/css">
	.st0{fill:#FFFFFF;}
</style>
<path class="st0" d="M10.1,18.2c4.7,0,8.6-3.8,8.6-8.6s-3.8-8.6-8.6-8.6S1.5,4.9,1.5,9.7C1.5,14.4,5.4,18.2,10.1,18.2z M4.1,4.8
	c0.5,0.5,1,0.9,1.5,1.2C5.3,7,5.1,8.1,5.1,9.2H2.4C2.5,7.6,3.1,6.1,4.1,4.8z M17.9,9.2h-2.7C15.2,8.1,15,7,14.6,6
	c0.6-0.3,1.1-0.7,1.5-1.2C17.2,6,17.8,7.6,17.9,9.2z M16.2,14.5c-0.5-0.5-1-0.9-1.5-1.2c0.3-1.1,0.5-2.2,0.6-3.3h2.7
	C17.8,11.7,17.2,13.3,16.2,14.5z M13.6,5.6c-1,0.5-2,0.8-3.1,0.8V2C11.9,2.9,13,4.1,13.6,5.6z M10.5,7.2c1.2-0.1,2.3-0.4,3.4-0.9
	c0.3,0.9,0.4,1.9,0.5,2.9h-3.8V7.2z M14.4,10.1c0,1-0.2,1.9-0.5,2.9c-1-0.5-2.2-0.8-3.4-0.9v-2H14.4z M10.5,17.3v-4.4
	c1.1,0.1,2.1,0.3,3.1,0.8C13,15.2,11.9,16.5,10.5,17.3z M9.7,12.1c-1.2,0.1-2.3,0.3-3.4,0.9C6.1,12,5.9,11,5.9,10.1h3.8V12.1z
	 M9.7,12.9v4.4c-1.4-0.8-2.5-2.1-3.1-3.6C7.6,13.2,8.7,12.9,9.7,12.9z M14.3,14.1c0.5,0.3,0.9,0.6,1.3,1c-1,1-2.2,1.6-3.5,2
	C13.1,16.3,13.9,15.3,14.3,14.1L14.3,14.1z M14.3,5.2c-0.5-1.2-1.2-2.2-2.2-3c1.3,0.4,2.5,1,3.5,2C15.2,4.5,14.8,4.9,14.3,5.2
	L14.3,5.2z M9.7,2v4.4C8.7,6.4,7.6,6.1,6.6,5.6C7.2,4.1,8.3,2.9,9.7,2z M9.7,7.2v2H5.9c0-1,0.2-1.9,0.5-2.8C7.4,6.9,8.6,7.2,9.7,7.2
	z M5.1,10.1c0,1.1,0.2,2.2,0.6,3.2c-0.6,0.3-1.1,0.7-1.5,1.2c-1-1.3-1.6-2.8-1.7-4.5H5.1z M4.6,15.1c0.4-0.4,0.8-0.7,1.3-1
	c0.5,1.2,1.2,2.2,2.2,3.1C6.8,16.8,5.6,16.1,4.6,15.1z M8.1,2.1C7.2,3,6.4,4,5.9,5.2C5.5,4.9,5,4.6,4.6,4.2C5.6,3.2,6.8,2.5,8.1,2.1
	z"/>
</svg>
